<svg width="56" height="56" viewBox="0 0 56 56" fill="none" xmlns="http://www.w3.org/2000/svg">
<path d="M27.9996 44.3961C25.8041 44.3961 24.0239 42.1699 22.0658 41.5682C20.0483 40.9063 17.2594 41.5682 15.5979 40.3046C13.8771 39.0411 13.6991 36.153 12.453 34.4682C11.2069 32.7233 8.59601 31.7004 7.94329 29.5945C7.29057 27.6089 8.77402 25.2022 8.77402 22.9759C8.77402 20.7496 7.29057 18.3429 7.94329 16.3573C8.59601 14.3115 11.2069 13.2285 12.453 11.4836C13.6991 9.73868 13.8771 6.91072 15.5979 5.64716C17.3187 4.38361 20.0483 5.04548 22.0658 4.38362C24.0239 3.72176 25.8634 1.55566 27.9996 1.55566C30.1951 1.55566 31.9752 3.78193 33.9334 4.38362C35.9509 5.04548 38.7398 4.38361 40.4012 5.64716C42.122 6.91072 42.3 9.79884 43.5461 11.4836C44.7922 13.2285 47.4031 14.2514 48.0558 16.3573C48.7086 18.3429 47.2251 20.7496 47.2251 22.9759C47.2251 25.2022 48.7086 27.6089 48.0558 29.5945C47.4031 31.6403 44.7922 32.7233 43.5461 34.4682C42.3 36.2131 42.122 39.0411 40.4012 40.3046C38.6804 41.5682 35.9509 40.9063 33.9334 41.5682C32.0346 42.23 30.1951 44.3961 27.9996 44.3961Z" fill="#276EF1"/>
<path d="M36.6019 22.9761V54.4446L27.9978 49.0293L19.4531 54.4446V22.9761H36.6019Z" fill="black"/>
<path d="M36.6019 20.1482H19.4531V22.9762H36.6019V20.1482Z" fill="#276EF1"/>
<path d="M28.0014 36.0331C35.1128 36.0331 40.8777 30.1874 40.8777 22.9764C40.8777 15.7654 35.1128 9.91968 28.0014 9.91968C20.89 9.91968 15.125 15.7654 15.125 22.9764C15.125 30.1874 20.89 36.0331 28.0014 36.0331Z" fill="#A0BFF8"/>
<path d="M27.9986 31.6996C32.7504 31.6996 36.6026 27.7935 36.6026 22.975C36.6026 18.1566 32.7504 14.2505 27.9986 14.2505C23.2467 14.2505 19.3945 18.1566 19.3945 22.975C19.3945 27.7935 23.2467 31.6996 27.9986 31.6996Z" fill="white"/>
</svg>
