<svg width="72" height="72" viewBox="0 0 72 72" fill="none" xmlns="http://www.w3.org/2000/svg">
<path d="M19.1016 62.0564V66.26C19.1016 68.3309 20.7908 70 22.8693 70H57.6355C59.7217 70 61.4032 68.3232 61.4032 66.26V62.0564H19.1016Z" fill="black"/>
<path d="M61.411 9.94364V5.74C61.411 3.66909 59.7217 2 57.6432 2H22.8771C20.7908 2 19.1016 3.67682 19.1016 5.74V9.94364H61.411Z" fill="black"/>
<path d="M61.411 9.9436H19.1016V62.0563H61.411V9.9436Z" fill="#05944F"/>
<path d="M40.2585 68.2073C41.3506 68.2073 42.2358 67.3286 42.2358 66.2446C42.2358 65.1606 41.3506 64.2819 40.2585 64.2819C39.1665 64.2819 38.2812 65.1606 38.2812 66.2446C38.2812 67.3286 39.1665 68.2073 40.2585 68.2073Z" fill="white"/>
<path d="M64.6555 27.3841C62.8651 29.1613 59.9536 29.1613 58.1632 27.3841C56.3727 25.6068 56.3727 22.7168 58.1632 20.9395C59.9536 19.1622 62.8651 19.1622 64.6555 20.9395C66.446 22.7168 66.446 25.6068 64.6555 27.3841Z" fill="#66D19E"/>
<path d="M64.6555 36.5022C62.8651 38.2795 59.9536 38.2795 58.1632 36.5022C56.3727 34.725 56.3727 31.835 58.1632 30.0577C59.9536 28.2804 62.8651 28.2804 64.6555 30.0577C66.446 31.835 66.446 34.725 64.6555 36.5022Z" fill="#66D19E"/>
<path d="M64.6555 45.6205C62.8651 47.3978 59.9536 47.3978 58.1632 45.6205C56.3727 43.8432 56.3727 40.9532 58.1632 39.176C59.9536 37.3987 62.8651 37.3987 64.6555 39.176C66.446 40.9532 66.446 43.8432 64.6555 45.6205Z" fill="#66D19E"/>
<path d="M64.6555 54.7384C62.8651 56.5157 59.9536 56.5157 58.1632 54.7384C56.3727 52.9612 56.3727 50.0712 58.1632 48.2939C59.9536 46.5166 62.8651 46.5166 64.6555 48.2939C66.446 50.0712 66.446 52.9612 64.6555 54.7384Z" fill="#66D19E"/>
<path d="M27.579 57.8605V70H6V41.3627C6 38.0477 7.05871 34.8255 9.02822 32.1518L18.5877 19.17C19.1794 18.3664 20.3315 18.2041 21.1255 18.8223C24.0759 21.1096 24.9166 25.1818 23.1262 28.4427L20.1758 33.7977V46.115L20.4872 46.2773C22.6669 47.3978 24.4418 49.0823 25.6717 51.0837C26.9017 53.085 27.579 55.4187 27.579 57.8605Z" fill="#66D19E"/>
<path d="M37.2773 24.409C37.2773 22.7477 38.6241 21.4958 40.2978 21.4958C41.9715 21.4958 43.2326 22.7477 43.2326 24.409C43.2326 26.0704 41.9715 27.3608 40.2978 27.3608C38.6241 27.3608 37.2773 26.0627 37.2773 24.409ZM42.9445 50.504H37.6043V31.6263H42.9445V50.504Z" fill="white"/>
</svg>
