<svg width="56" height="56" viewBox="0 0 56 56" fill="none" xmlns="http://www.w3.org/2000/svg">
<path d="M28.0004 1.55554L6.22266 13.8301V28.5114C6.22266 37.958 11.6519 46.5622 20.2532 50.7139L28.0004 54.4444L35.7477 50.7139C44.349 46.5622 49.7782 37.958 49.7782 28.5114V13.8301L28.0004 1.55554Z" fill="#276EF1"/>
<path d="M44.9563 16.9599V28.5726C44.9563 36.1539 40.5031 43.1937 33.6099 46.503L27.9977 49.2107L22.3855 46.503C15.4312 43.1336 11.0391 36.1539 11.0391 28.5726V16.9599L27.9977 7.39294L44.9563 16.9599Z" fill="black"/>
<path d="M40.0806 22.5554L30.7472 22.6155L27.8801 13.8308L25.013 22.6155L15.6797 22.5554L23.2439 27.9104L20.3158 36.635L27.8191 31.2198L35.2004 36.5748L35.3224 36.635L32.5163 27.9104L40.0806 22.5554Z" fill="white"/>
<path d="M22.4477 40.2451H33.3061V42.2307C32.3301 42.2307 31.5371 43.0129 31.5371 43.9756H24.1558C24.1558 43.0129 23.3628 42.2307 22.3867 42.2307V40.2451H22.4477Z" fill="#A0BFF8"/>
</svg>
